<svg width="128" height="128" viewBox="0 0 128 128" fill="none" xmlns="http://www.w3.org/2000/svg">
<g clip-path="url(#clip0_136_191)">
<path d="M64 47.667C54.9941 47.667 47.667 54.9941 47.667 64C47.667 73.0059 54.9941 80.333 64 80.333C73.0059 80.333 80.334 73.0059 80.334 64C80.334 54.9941 73.0059 47.667 64 47.667Z" fill="currentColor"/>
<path d="M104.167 0H23.834C10.6914 0 0 10.6914 0 23.833V104.167C0 117.309 10.6914 128 23.834 128H104.167C117.309 128 128 117.309 128 104.167V23.833C128 10.6914 117.309 0 104.167 0ZM107.917 74.042C107.917 81.6465 101.729 87.833 94.125 87.833C88.6416 87.833 83.8965 84.6162 81.6748 79.9707C77.3105 84.7969 71.0039 87.833 64 87.833C50.8584 87.833 40.167 77.1416 40.167 64C40.167 50.8584 50.8584 40.167 64 40.167C77.1416 40.167 87.834 50.8584 87.834 64V74.042C87.834 77.5107 90.6562 80.333 94.125 80.333C97.5947 80.333 100.417 77.5107 100.417 74.042V64C100.417 43.9199 84.0801 27.583 64 27.583C43.9199 27.583 27.584 43.9199 27.584 64C27.584 84.0801 43.9199 100.417 64 100.417H104.167C106.237 100.417 107.917 102.096 107.917 104.167C107.917 106.237 106.237 107.917 104.167 107.917H64C39.7842 107.917 20.084 88.2158 20.084 64C20.084 39.7842 39.7842 20.083 64 20.083C88.2158 20.083 107.917 39.7842 107.917 64V74.042Z" fill="black"/>
</g>
<defs>
<clipPath id="clip0_136_191">
<rect width="128" height="128" fill="white"/>
</clipPath>
</defs>
</svg>
