<svg width="128" height="128" viewBox="0 0 128 128" fill="none" xmlns="http://www.w3.org/2000/svg">
<g clip-path="url(#clip0_136_25)">
<path fill-rule="evenodd" clip-rule="evenodd" d="M69.3167 57.4879V57.3008C69.2785 57.3635 69.2256 57.4263 69.1924 57.4879H69.3167Z" fill="currentColor"/>
<path fill-rule="evenodd" clip-rule="evenodd" d="M0 0V128H128V0H0ZM39.8128 106.339H20.8221V49.2043H39.8128V106.339ZM30.3174 41.4062H30.192C23.8215 41.4062 19.6923 37.0173 19.6923 31.5316C19.6923 25.9255 23.9422 21.661 30.4418 21.661C36.9428 21.661 40.9378 25.9255 41.0621 31.5316C41.0621 37.0173 36.9428 41.4062 30.3174 41.4062ZM108.308 106.339H89.3119V75.7718C89.3119 68.0943 86.5674 62.8536 79.6922 62.8536C74.4417 62.8536 71.3216 66.3822 69.9471 69.8002C69.4475 71.0212 69.3169 72.7183 69.3169 74.4305V106.339H50.3175C50.3175 106.339 50.5721 54.5646 50.3175 49.2046H69.3169V57.3007C71.8412 53.4165 76.346 47.8633 86.4369 47.8633C98.9378 47.8633 108.308 56.0271 108.308 73.5752V106.339Z" fill="black"/>
</g>
<defs>
<clipPath id="clip0_136_25">
<rect width="128" height="128" rx="30" fill="white"/>
</clipPath>
</defs>
</svg>
